<svg xmlns="http://www.w3.org/2000/svg" xmlns:xlink="http://www.w3.org/1999/xlink" width="1040" zoomAndPan="magnify" viewBox="0 0 780 779.999994" height="1040" preserveAspectRatio="xMidYMid meet" version="1.0"><path fill="#748cab" d="M 175.839844 0 L 604.160156 0 C 607.035156 0 609.914062 0.0703125 612.785156 0.210938 C 615.660156 0.351562 618.53125 0.566406 621.394531 0.847656 C 624.257812 1.128906 627.113281 1.480469 629.960938 1.902344 C 632.804688 2.324219 635.640625 2.816406 638.464844 3.378906 C 641.285156 3.941406 644.09375 4.570312 646.882812 5.269531 C 649.675781 5.96875 652.449219 6.734375 655.203125 7.570312 C 657.957031 8.40625 660.6875 9.308594 663.398438 10.277344 C 666.105469 11.25 668.792969 12.285156 671.449219 13.386719 C 674.109375 14.488281 676.738281 15.652344 679.339844 16.882812 C 681.941406 18.113281 684.511719 19.40625 687.050781 20.761719 C 689.585938 22.121094 692.089844 23.539062 694.558594 25.015625 C 697.027344 26.496094 699.457031 28.035156 701.851562 29.632812 C 704.242188 31.234375 706.597656 32.890625 708.90625 34.605469 C 711.21875 36.320312 713.488281 38.089844 715.710938 39.914062 C 717.9375 41.738281 720.113281 43.617188 722.246094 45.550781 C 724.378906 47.484375 726.460938 49.46875 728.496094 51.503906 C 730.53125 53.539062 732.515625 55.621094 734.449219 57.753906 C 736.382812 59.886719 738.261719 62.0625 740.085938 64.289062 C 741.910156 66.511719 743.679688 68.78125 745.394531 71.09375 C 747.109375 73.402344 748.765625 75.757812 750.363281 78.148438 C 751.964844 80.542969 753.503906 82.972656 754.984375 85.441406 C 756.460938 87.910156 757.878906 90.414062 759.238281 92.949219 C 760.59375 95.488281 761.886719 98.058594 763.117188 100.660156 C 764.347656 103.261719 765.511719 105.890625 766.613281 108.550781 C 767.714844 111.207031 768.75 113.890625 769.722656 116.601562 C 770.691406 119.3125 771.59375 122.042969 772.429688 124.796875 C 773.261719 127.550781 774.03125 130.324219 774.730469 133.117188 C 775.429688 135.90625 776.058594 138.714844 776.621094 141.535156 C 777.183594 144.359375 777.675781 147.191406 778.097656 150.039062 C 778.519531 152.886719 778.871094 155.742188 779.152344 158.605469 C 779.433594 161.46875 779.648438 164.339844 779.789062 167.214844 C 779.929688 170.085938 780 172.964844 780 175.839844 L 780 604.160156 C 780 607.035156 779.929688 609.914062 779.789062 612.785156 C 779.648438 615.660156 779.433594 618.53125 779.152344 621.394531 C 778.871094 624.257812 778.519531 627.113281 778.097656 629.960938 C 777.675781 632.804688 777.183594 635.640625 776.621094 638.464844 C 776.058594 641.285156 775.429688 644.09375 774.730469 646.882812 C 774.03125 649.675781 773.261719 652.449219 772.429688 655.203125 C 771.59375 657.957031 770.691406 660.6875 769.722656 663.398438 C 768.75 666.105469 767.714844 668.792969 766.613281 671.449219 C 765.511719 674.109375 764.347656 676.738281 763.117188 679.339844 C 761.886719 681.941406 760.59375 684.511719 759.238281 687.050781 C 757.878906 689.585938 756.460938 692.089844 754.984375 694.558594 C 753.503906 697.027344 751.964844 699.457031 750.367188 701.851562 C 748.765625 704.242188 747.109375 706.597656 745.394531 708.90625 C 743.679688 711.21875 741.910156 713.488281 740.085938 715.710938 C 738.261719 717.9375 736.382812 720.113281 734.449219 722.246094 C 732.515625 724.378906 730.53125 726.460938 728.496094 728.496094 C 726.460938 730.53125 724.378906 732.515625 722.246094 734.449219 C 720.113281 736.382812 717.9375 738.261719 715.710938 740.085938 C 713.488281 741.910156 711.21875 743.679688 708.90625 745.394531 C 706.597656 747.109375 704.242188 748.765625 701.851562 750.367188 C 699.457031 751.964844 697.027344 753.503906 694.558594 754.984375 C 692.089844 756.460938 689.585938 757.878906 687.050781 759.238281 C 684.511719 760.59375 681.941406 761.886719 679.339844 763.117188 C 676.738281 764.347656 674.109375 765.511719 671.449219 766.613281 C 668.792969 767.714844 666.105469 768.75 663.398438 769.722656 C 660.6875 770.691406 657.957031 771.59375 655.203125 772.429688 C 652.449219 773.261719 649.675781 774.03125 646.882812 774.730469 C 644.09375 775.429688 641.285156 776.058594 638.464844 776.621094 C 635.640625 777.183594 632.804688 777.675781 629.960938 778.097656 C 627.113281 778.519531 624.257812 778.871094 621.394531 779.152344 C 618.53125 779.433594 615.660156 779.648438 612.785156 779.789062 C 609.914062 779.929688 607.035156 780 604.160156 780 L 175.839844 780 C 172.964844 780 170.085938 779.929688 167.214844 779.789062 C 164.339844 779.648438 161.46875 779.433594 158.605469 779.152344 C 155.742188 778.871094 152.886719 778.519531 150.039062 778.097656 C 147.191406 777.675781 144.359375 777.183594 141.535156 776.621094 C 138.714844 776.058594 135.90625 775.429688 133.117188 774.730469 C 130.324219 774.03125 127.550781 773.261719 124.796875 772.429688 C 122.042969 771.59375 119.3125 770.691406 116.601562 769.722656 C 113.890625 768.75 111.207031 767.714844 108.550781 766.613281 C 105.890625 765.511719 103.261719 764.347656 100.660156 763.117188 C 98.058594 761.886719 95.488281 760.59375 92.949219 759.238281 C 90.414062 757.878906 87.910156 756.460938 85.441406 754.984375 C 82.972656 753.503906 80.542969 751.964844 78.148438 750.367188 C 75.757812 748.765625 73.402344 747.109375 71.09375 745.394531 C 68.78125 743.679688 66.511719 741.910156 64.289062 740.085938 C 62.0625 738.261719 59.886719 736.382812 57.753906 734.449219 C 55.621094 732.515625 53.539062 730.53125 51.503906 728.496094 C 49.46875 726.460938 47.484375 724.378906 45.550781 722.246094 C 43.617188 720.113281 41.738281 717.9375 39.914062 715.710938 C 38.089844 713.488281 36.320312 711.21875 34.605469 708.90625 C 32.890625 706.597656 31.234375 704.242188 29.632812 701.851562 C 28.035156 699.457031 26.496094 697.027344 25.015625 694.558594 C 23.539062 692.089844 22.121094 689.585938 20.761719 687.050781 C 19.40625 684.511719 18.113281 681.941406 16.882812 679.339844 C 15.652344 676.738281 14.488281 674.109375 13.386719 671.449219 C 12.285156 668.792969 11.25 666.105469 10.277344 663.398438 C 9.308594 660.6875 8.40625 657.957031 7.570312 655.203125 C 6.734375 652.449219 5.96875 649.675781 5.269531 646.882812 C 4.570312 644.09375 3.941406 641.285156 3.378906 638.464844 C 2.816406 635.640625 2.324219 632.804688 1.902344 629.960938 C 1.480469 627.113281 1.128906 624.257812 0.847656 621.394531 C 0.566406 618.53125 0.351562 615.660156 0.210938 612.785156 C 0.0703125 609.914062 0 607.035156 0 604.160156 L 0 175.839844 C 0 172.964844 0.0703125 170.085938 0.210938 167.214844 C 0.351562 164.339844 0.566406 161.46875 0.847656 158.605469 C 1.128906 155.742188 1.480469 152.886719 1.902344 150.039062 C 2.324219 147.191406 2.816406 144.359375 3.378906 141.535156 C 3.941406 138.714844 4.570312 135.90625 5.269531 133.117188 C 5.96875 130.324219 6.734375 127.550781 7.570312 124.796875 C 8.40625 122.042969 9.308594 119.3125 10.277344 116.601562 C 11.25 113.890625 12.285156 111.207031 13.386719 108.550781 C 14.488281 105.890625 15.652344 103.261719 16.882812 100.660156 C 18.113281 98.058594 19.40625 95.488281 20.761719 92.949219 C 22.121094 90.414062 23.539062 87.910156 25.015625 85.441406 C 26.496094 82.972656 28.035156 80.542969 29.632812 78.148438 C 31.234375 75.757812 32.890625 73.402344 34.605469 71.09375 C 36.320312 68.78125 38.089844 66.511719 39.914062 64.289062 C 41.738281 62.0625 43.617188 59.886719 45.550781 57.753906 C 47.484375 55.621094 49.46875 53.539062 51.503906 51.503906 C 53.539062 49.46875 55.621094 47.484375 57.753906 45.550781 C 59.886719 43.617188 62.0625 41.738281 64.289062 39.914062 C 66.511719 38.089844 68.78125 36.320312 71.09375 34.605469 C 73.402344 32.890625 75.757812 31.234375 78.148438 29.632812 C 80.542969 28.035156 82.972656 26.496094 85.441406 25.015625 C 87.910156 23.539062 90.414062 22.121094 92.949219 20.761719 C 95.488281 19.40625 98.058594 18.113281 100.660156 16.882812 C 103.261719 15.652344 105.890625 14.488281 108.550781 13.386719 C 111.207031 12.285156 113.890625 11.25 116.601562 10.277344 C 119.3125 9.308594 122.042969 8.40625 124.796875 7.570312 C 127.550781 6.734375 130.324219 5.96875 133.117188 5.269531 C 135.90625 4.570312 138.714844 3.941406 141.535156 3.378906 C 144.359375 2.816406 147.191406 2.324219 150.039062 1.902344 C 152.886719 1.480469 155.742188 1.128906 158.605469 0.847656 C 161.46875 0.566406 164.339844 0.351562 167.214844 0.210938 C 170.085938 0.0703125 172.964844 0 175.839844 0 Z M 175.839844 0 " fill-opacity="1" fill-rule="nonzero"/><path fill="#ffffff" d="M 649.984375 353.242188 C 649.984375 236.875 533.324219 142.203125 389.925781 142.203125 C 246.527344 142.203125 129.871094 236.875 129.871094 353.242188 C 129.871094 457.566406 222.496094 544.953125 347.34375 561.453125 C 355.828125 563.28125 367.355469 567.035156 370.257812 574.273438 C 372.890625 580.855469 371.988281 591.167969 371.109375 597.796875 C 371.109375 597.796875 368.0625 616.152344 367.40625 620.050781 C 366.257812 626.632812 362.164062 645.765625 389.925781 634.089844 C 417.691406 622.414062 539.6875 545.902344 594.238281 483.089844 C 631.921875 441.773438 649.984375 399.75 649.984375 353.242188 Z M 649.984375 353.242188 " fill-opacity="1" fill-rule="nonzero"/><path fill="#748cab" d="M 563.453125 420.445312 L 490.328125 420.445312 C 490.007812 420.445312 489.691406 420.414062 489.375 420.351562 C 489.0625 420.289062 488.757812 420.195312 488.460938 420.074219 C 488.167969 419.949219 487.886719 419.800781 487.617188 419.621094 C 487.351562 419.445312 487.105469 419.242188 486.878906 419.015625 C 486.652344 418.789062 486.453125 418.542969 486.273438 418.277344 C 486.097656 418.011719 485.945312 417.730469 485.824219 417.433594 C 485.699219 417.140625 485.609375 416.835938 485.546875 416.519531 C 485.484375 416.207031 485.453125 415.890625 485.453125 415.570312 L 485.453125 302.105469 C 485.453125 301.785156 485.484375 301.464844 485.546875 301.152344 C 485.609375 300.839844 485.699219 300.535156 485.824219 300.238281 C 485.945312 299.941406 486.097656 299.660156 486.273438 299.394531 C 486.453125 299.128906 486.652344 298.882812 486.878906 298.65625 C 487.105469 298.429688 487.351562 298.226562 487.617188 298.050781 C 487.886719 297.871094 488.167969 297.722656 488.460938 297.601562 C 488.757812 297.476562 489.0625 297.386719 489.375 297.324219 C 489.691406 297.261719 490.007812 297.230469 490.328125 297.230469 L 563.453125 297.230469 C 563.773438 297.230469 564.089844 297.261719 564.402344 297.324219 C 564.71875 297.386719 565.023438 297.476562 565.316406 297.601562 C 565.613281 297.722656 565.894531 297.871094 566.160156 298.050781 C 566.425781 298.226562 566.671875 298.429688 566.898438 298.65625 C 567.125 298.882812 567.328125 299.128906 567.507812 299.394531 C 567.683594 299.660156 567.832031 299.941406 567.957031 300.238281 C 568.078125 300.535156 568.171875 300.839844 568.234375 301.152344 C 568.296875 301.464844 568.328125 301.785156 568.328125 302.105469 L 568.328125 320.554688 C 568.328125 320.875 568.296875 321.191406 568.234375 321.507812 C 568.171875 321.820312 568.078125 322.125 567.957031 322.421875 C 567.832031 322.71875 567.683594 322.996094 567.507812 323.265625 C 567.328125 323.53125 567.125 323.777344 566.898438 324.003906 C 566.671875 324.230469 566.425781 324.429688 566.160156 324.609375 C 565.894531 324.785156 565.613281 324.9375 565.316406 325.058594 C 565.023438 325.183594 564.71875 325.273438 564.402344 325.335938 C 564.089844 325.398438 563.773438 325.429688 563.453125 325.429688 L 513.800781 325.429688 L 513.800781 344.566406 L 563.453125 344.566406 C 563.773438 344.566406 564.089844 344.597656 564.402344 344.660156 C 564.71875 344.722656 565.023438 344.8125 565.316406 344.9375 C 565.613281 345.058594 565.894531 345.207031 566.160156 345.386719 C 566.425781 345.5625 566.671875 345.765625 566.898438 345.992188 C 567.125 346.21875 567.328125 346.464844 567.503906 346.730469 C 567.683594 346.996094 567.832031 347.277344 567.957031 347.574219 C 568.078125 347.871094 568.171875 348.175781 568.234375 348.488281 C 568.296875 348.804688 568.328125 349.121094 568.328125 349.441406 L 568.328125 368.0625 C 568.328125 368.382812 568.296875 368.699219 568.234375 369.011719 C 568.171875 369.328125 568.078125 369.632812 567.957031 369.929688 C 567.832031 370.222656 567.683594 370.503906 567.503906 370.769531 C 567.328125 371.035156 567.125 371.285156 566.898438 371.507812 C 566.671875 371.734375 566.425781 371.9375 566.160156 372.117188 C 565.894531 372.292969 565.613281 372.445312 565.316406 372.566406 C 565.023438 372.6875 564.71875 372.78125 564.402344 372.84375 C 564.089844 372.90625 563.773438 372.9375 563.453125 372.9375 L 513.800781 372.9375 L 513.800781 392.097656 L 563.453125 392.097656 C 563.773438 392.097656 564.089844 392.128906 564.402344 392.191406 C 564.71875 392.253906 565.023438 392.34375 565.316406 392.46875 C 565.613281 392.589844 565.894531 392.738281 566.160156 392.917969 C 566.425781 393.09375 566.671875 393.296875 566.898438 393.523438 C 567.125 393.75 567.328125 393.996094 567.503906 394.261719 C 567.683594 394.527344 567.832031 394.808594 567.957031 395.105469 C 568.078125 395.402344 568.171875 395.707031 568.234375 396.019531 C 568.296875 396.335938 568.328125 396.652344 568.328125 396.972656 L 568.328125 415.398438 C 568.339844 415.726562 568.316406 416.050781 568.261719 416.375 C 568.210938 416.695312 568.125 417.011719 568.007812 417.316406 C 567.890625 417.621094 567.742188 417.914062 567.566406 418.1875 C 567.390625 418.464844 567.1875 418.722656 566.960938 418.957031 C 566.734375 419.191406 566.484375 419.402344 566.214844 419.589844 C 565.945312 419.773438 565.660156 419.929688 565.359375 420.058594 C 565.058594 420.183594 564.746094 420.28125 564.425781 420.347656 C 564.105469 420.414062 563.78125 420.445312 563.453125 420.445312 Z M 563.453125 420.445312 " fill-opacity="1" fill-rule="nonzero"/><path fill="#748cab" d="M 293.207031 420.445312 C 293.527344 420.445312 293.84375 420.414062 294.15625 420.351562 C 294.472656 420.289062 294.777344 420.195312 295.074219 420.074219 C 295.367188 419.949219 295.648438 419.800781 295.914062 419.621094 C 296.179688 419.445312 296.425781 419.242188 296.652344 419.015625 C 296.878906 418.789062 297.082031 418.542969 297.261719 418.277344 C 297.4375 418.011719 297.589844 417.730469 297.710938 417.433594 C 297.832031 417.140625 297.925781 416.835938 297.988281 416.519531 C 298.050781 416.207031 298.082031 415.890625 298.082031 415.570312 L 298.082031 397.140625 C 298.082031 396.820312 298.050781 396.503906 297.988281 396.191406 C 297.925781 395.875 297.832031 395.570312 297.710938 395.277344 C 297.589844 394.980469 297.4375 394.699219 297.261719 394.433594 C 297.082031 394.167969 296.878906 393.921875 296.652344 393.695312 C 296.425781 393.46875 296.179688 393.265625 295.914062 393.089844 C 295.648438 392.910156 295.367188 392.761719 295.074219 392.636719 C 294.777344 392.515625 294.472656 392.421875 294.15625 392.359375 C 293.84375 392.296875 293.527344 392.265625 293.207031 392.265625 L 243.554688 392.265625 L 243.554688 302.078125 C 243.554688 301.757812 243.523438 301.441406 243.460938 301.128906 C 243.398438 300.8125 243.304688 300.507812 243.183594 300.214844 C 243.0625 299.917969 242.910156 299.636719 242.734375 299.371094 C 242.554688 299.105469 242.351562 298.859375 242.128906 298.632812 C 241.902344 298.40625 241.65625 298.203125 241.386719 298.027344 C 241.121094 297.847656 240.839844 297.699219 240.546875 297.574219 C 240.25 297.453125 239.945312 297.359375 239.632812 297.296875 C 239.316406 297.234375 239 297.203125 238.679688 297.203125 L 220.15625 297.203125 C 219.835938 297.203125 219.519531 297.234375 219.203125 297.296875 C 218.890625 297.359375 218.585938 297.453125 218.289062 297.574219 C 217.992188 297.699219 217.710938 297.847656 217.445312 298.027344 C 217.179688 298.203125 216.933594 298.40625 216.707031 298.632812 C 216.480469 298.859375 216.28125 299.105469 216.101562 299.371094 C 215.921875 299.636719 215.773438 299.917969 215.652344 300.214844 C 215.527344 300.507812 215.4375 300.8125 215.375 301.128906 C 215.3125 301.441406 215.28125 301.757812 215.28125 302.078125 L 215.28125 415.496094 C 215.28125 415.816406 215.3125 416.132812 215.375 416.449219 C 215.4375 416.761719 215.527344 417.066406 215.652344 417.363281 C 215.773438 417.65625 215.921875 417.9375 216.101562 418.203125 C 216.28125 418.472656 216.480469 418.71875 216.707031 418.945312 C 216.933594 419.167969 217.179688 419.371094 217.445312 419.550781 C 217.710938 419.726562 217.992188 419.878906 218.289062 420 C 218.585938 420.121094 218.890625 420.214844 219.203125 420.277344 C 219.519531 420.339844 219.835938 420.371094 220.15625 420.371094 L 293.28125 420.371094 Z M 293.207031 420.445312 " fill-opacity="1" fill-rule="nonzero"/><path fill="#748cab" d="M 318.75 297.007812 L 337.179688 297.007812 C 337.507812 297.007812 337.828125 297.042969 338.148438 297.105469 C 338.46875 297.167969 338.78125 297.261719 339.082031 297.386719 C 339.382812 297.511719 339.671875 297.664062 339.941406 297.847656 C 340.214844 298.027344 340.464844 298.234375 340.695312 298.464844 C 340.925781 298.695312 341.132812 298.949219 341.3125 299.21875 C 341.496094 299.492188 341.648438 299.777344 341.773438 300.078125 C 341.898438 300.378906 341.992188 300.691406 342.054688 301.011719 C 342.121094 301.332031 342.152344 301.65625 342.152344 301.980469 L 342.152344 415.472656 C 342.152344 415.796875 342.121094 416.121094 342.054688 416.441406 C 341.992188 416.761719 341.898438 417.074219 341.773438 417.375 C 341.648438 417.675781 341.496094 417.960938 341.3125 418.234375 C 341.132812 418.507812 340.925781 418.757812 340.695312 418.988281 C 340.464844 419.21875 340.214844 419.425781 339.941406 419.605469 C 339.671875 419.789062 339.382812 419.941406 339.082031 420.066406 C 338.78125 420.191406 338.46875 420.285156 338.148438 420.347656 C 337.828125 420.414062 337.507812 420.445312 337.179688 420.445312 L 318.75 420.445312 C 318.425781 420.445312 318.101562 420.414062 317.78125 420.347656 C 317.460938 420.285156 317.152344 420.191406 316.847656 420.066406 C 316.546875 419.941406 316.261719 419.789062 315.988281 419.605469 C 315.71875 419.425781 315.464844 419.21875 315.234375 418.988281 C 315.003906 418.757812 314.796875 418.507812 314.617188 418.234375 C 314.4375 417.960938 314.28125 417.675781 314.15625 417.375 C 314.03125 417.074219 313.9375 416.761719 313.875 416.441406 C 313.8125 416.121094 313.78125 415.796875 313.78125 415.472656 L 313.78125 301.980469 C 313.78125 301.65625 313.8125 301.332031 313.875 301.011719 C 313.9375 300.691406 314.03125 300.378906 314.15625 300.078125 C 314.28125 299.777344 314.4375 299.492188 314.617188 299.21875 C 314.796875 298.949219 315.003906 298.695312 315.234375 298.464844 C 315.464844 298.234375 315.71875 298.027344 315.988281 297.847656 C 316.261719 297.664062 316.546875 297.511719 316.847656 297.386719 C 317.152344 297.261719 317.460938 297.167969 317.78125 297.105469 C 318.101562 297.042969 318.425781 297.007812 318.75 297.007812 Z M 318.75 297.007812 " fill-opacity="1" fill-rule="nonzero"/><path fill="#748cab" d="M 462.734375 297.007812 L 444.308594 297.007812 C 443.988281 297.007812 443.671875 297.039062 443.355469 297.101562 C 443.042969 297.164062 442.738281 297.257812 442.441406 297.378906 C 442.144531 297.503906 441.863281 297.652344 441.597656 297.832031 C 441.332031 298.007812 441.085938 298.210938 440.859375 298.4375 C 440.632812 298.664062 440.433594 298.910156 440.253906 299.175781 C 440.078125 299.441406 439.925781 299.722656 439.804688 300.019531 C 439.679688 300.316406 439.589844 300.621094 439.527344 300.933594 C 439.464844 301.246094 439.433594 301.5625 439.433594 301.882812 L 439.433594 369.304688 L 387.515625 299.179688 C 387.394531 298.992188 387.257812 298.820312 387.097656 298.667969 L 386.808594 298.375 L 386.539062 298.15625 L 386.390625 298.15625 L 386.125 297.960938 L 385.976562 297.960938 L 385.710938 297.8125 L 365.0625 297.8125 C 364.746094 297.8125 364.425781 297.84375 364.113281 297.90625 C 363.800781 297.96875 363.496094 298.0625 363.199219 298.183594 C 362.902344 298.308594 362.621094 298.457031 362.355469 298.636719 C 362.089844 298.8125 361.84375 299.015625 361.617188 299.242188 C 361.390625 299.46875 361.1875 299.714844 361.011719 299.980469 C 360.832031 300.246094 360.683594 300.527344 360.558594 300.824219 C 360.4375 301.117188 360.34375 301.421875 360.28125 301.738281 C 360.21875 302.050781 360.1875 302.367188 360.1875 302.6875 L 360.1875 416.179688 C 360.1875 416.5 360.21875 416.816406 360.28125 417.128906 C 360.34375 417.445312 360.4375 417.75 360.558594 418.042969 C 360.683594 418.339844 360.832031 418.621094 361.011719 418.886719 C 361.1875 419.152344 361.390625 419.398438 361.617188 419.625 C 361.84375 419.851562 362.089844 420.054688 362.355469 420.230469 C 362.621094 420.410156 362.902344 420.558594 363.199219 420.683594 C 363.496094 420.804688 363.800781 420.898438 364.113281 420.960938 C 364.425781 421.023438 364.746094 421.054688 365.0625 421.054688 L 383.515625 421.054688 C 383.835938 421.054688 384.152344 421.023438 384.46875 420.960938 C 384.78125 420.898438 385.085938 420.804688 385.382812 420.683594 C 385.675781 420.558594 385.957031 420.410156 386.222656 420.230469 C 386.492188 420.054688 386.738281 419.851562 386.964844 419.625 C 387.191406 419.398438 387.390625 419.152344 387.570312 418.886719 C 387.746094 418.621094 387.898438 418.339844 388.019531 418.042969 C 388.144531 417.75 388.234375 417.445312 388.296875 417.128906 C 388.359375 416.816406 388.390625 416.5 388.390625 416.179688 L 388.390625 348.097656 L 440.382812 418.300781 C 440.726562 418.800781 441.148438 419.222656 441.652344 419.566406 L 441.941406 419.761719 L 442.089844 419.761719 L 442.332031 419.882812 L 443.089844 419.882812 C 443.519531 419.992188 443.960938 420.046875 444.40625 420.054688 L 462.734375 420.054688 C 463.054688 420.054688 463.371094 420.023438 463.6875 419.960938 C 464 419.898438 464.304688 419.804688 464.601562 419.683594 C 464.894531 419.5625 465.175781 419.410156 465.445312 419.234375 C 465.710938 419.054688 465.957031 418.851562 466.183594 418.625 C 466.410156 418.398438 466.609375 418.152344 466.789062 417.886719 C 466.964844 417.621094 467.117188 417.339844 467.238281 417.046875 C 467.363281 416.75 467.453125 416.445312 467.515625 416.128906 C 467.578125 415.816406 467.609375 415.5 467.609375 415.179688 L 467.609375 301.980469 C 467.617188 301.65625 467.589844 301.335938 467.535156 301.015625 C 467.476562 300.699219 467.386719 300.386719 467.265625 300.085938 C 467.148438 299.785156 467 299.5 466.824219 299.226562 C 466.644531 298.953125 466.445312 298.703125 466.21875 298.472656 C 465.988281 298.238281 465.742188 298.03125 465.472656 297.851562 C 465.207031 297.667969 464.921875 297.515625 464.625 297.390625 C 464.324219 297.265625 464.015625 297.167969 463.699219 297.105469 C 463.378906 297.042969 463.058594 297.007812 462.734375 297.007812 Z M 462.734375 297.007812 " fill-opacity="1" fill-rule="nonzero"/></svg>